<?xml version="1.0" encoding="utf-8"?>
<!-- Generator: Adobe Illustrator 16.0.3, SVG Export Plug-In . SVG Version: 6.00 Build 0)  -->
<!DOCTYPE svg PUBLIC "-//W3C//DTD SVG 1.1//EN" "http://www.w3.org/Graphics/SVG/1.1/DTD/svg11.dtd">
<svg version="1.1" id="Layer_1" xmlns="http://www.w3.org/2000/svg" xmlns:xlink="http://www.w3.org/1999/xlink" x="0px" y="0px"
	 width="40px" height="40px" viewBox="0 0 40 40" enable-background="new 0 0 40 40" xml:space="preserve">
<path fill="#DEDFE0" d="M29.861,6.716l3.437-3.435h-12.84V16.12l3.416-3.417c1.674,1.719,2.71,4.049,2.71,6.448
	c0,2.447-0.951,4.746-2.684,6.475c-3.567,3.569-9.379,3.569-12.948,0L5,31.579c3.426,3.426,7.928,5.14,12.427,5.14
	c4.502,0,8.999-1.714,12.428-5.14C33.174,28.259,35,23.848,35,19.151C35,14.505,33.117,10.026,29.861,6.716z"/>
<text transform="matrix(1 0 0 1 4.882813e-004 50.667)" fill="#0B6982" font-family="'ArialMT'" font-size="12">svg text</text>
</svg>
