<?xml version="1.0" encoding="utf-8"?>
<!-- Generator: Adobe Illustrator 16.0.3, SVG Export Plug-In . SVG Version: 6.00 Build 0)  -->
<!DOCTYPE svg PUBLIC "-//W3C//DTD SVG 1.1//EN" "http://www.w3.org/Graphics/SVG/1.1/DTD/svg11.dtd">
<svg version="1.1" id="Layer_1" xmlns="http://www.w3.org/2000/svg" xmlns:xlink="http://www.w3.org/1999/xlink" x="0px" y="0px"
	 width="150px" height="120px" viewBox="0 0 150 120" enable-background="new 0 0 150 120" xml:space="preserve">
<circle fill="#808285" cx="75" cy="60" r="55"/>
<g>
	<path d="M8.675,47.154v9.489h11.191v-9.489H24.1v23.552h-4.233V60.048H8.675v10.657H4.442V47.154H8.675z"/>
	<path d="M32.471,47.154l5.158,13.917c0.535,1.557,1.119,3.406,1.509,4.817h0.097c0.438-1.411,0.925-3.212,1.509-4.914l4.671-13.82
		h4.525l-6.423,16.788c-3.065,8.077-5.158,12.214-8.077,14.744c-2.093,1.849-4.186,2.578-5.256,2.773l-1.07-3.602
		c1.07-0.34,2.481-1.021,3.746-2.092c1.169-0.925,2.628-2.579,3.602-4.769c0.195-0.438,0.341-0.778,0.341-1.022
		c0-0.243-0.098-0.584-0.292-1.119L27.8,47.154H32.471z"/>
	<path d="M71.302,47.154v23.552h-4.233V50.512h-8.077v6.131c0,6.617-0.633,11.046-3.698,13.041
		c-1.168,0.924-2.482,1.459-4.672,1.459l-0.438-3.357c0.827-0.146,1.752-0.486,2.336-0.973c2.189-1.605,2.433-4.915,2.433-10.17
		v-9.489H71.302z"/>
	<path d="M91.35,70.706l-0.341-2.969h-0.146c-1.313,1.85-3.845,3.504-7.202,3.504c-4.769,0-7.201-3.357-7.201-6.764
		c0-5.693,5.061-8.808,14.16-8.759v-0.486c0-1.946-0.535-5.45-5.353-5.45c-2.189,0-4.478,0.682-6.132,1.752l-0.973-2.822
		c1.946-1.266,4.769-2.092,7.736-2.092c7.202,0,8.954,4.914,8.954,9.634v8.808c0,2.044,0.098,4.039,0.389,5.645H91.35z
		 M90.717,58.687c-4.671-0.098-9.975,0.729-9.975,5.304c0,2.773,1.849,4.087,4.038,4.087c3.066,0,5.013-1.946,5.693-3.941
		c0.146-0.438,0.243-0.924,0.243-1.362V58.687z"/>
	<path d="M124.975,47.981c0,6.666-3.504,9.976-7.591,9.976c-3.941,0-7.348-3.163-7.396-9.538c0-6.325,3.455-9.877,7.64-9.877
		C122.056,38.542,124.975,41.948,124.975,47.981z M113.394,48.274c-0.097,4.038,1.411,7.104,4.087,7.104
		c2.823,0,4.088-3.017,4.088-7.201c0-3.845-1.119-7.057-4.088-7.057C114.805,41.12,113.394,44.283,113.394,48.274z M117.092,71.241
		l18.588-32.699h2.726l-18.588,32.699H117.092z M145.558,61.071c0,6.666-3.504,9.976-7.542,9.976c-3.941,0-7.348-3.163-7.396-9.489
		c0-6.374,3.455-9.926,7.64-9.926C142.687,51.631,145.558,55.037,145.558,61.071z M133.977,61.363
		c-0.049,4.038,1.509,7.104,4.137,7.104c2.821,0,4.087-3.017,4.087-7.202c0-3.845-1.119-7.055-4.087-7.055
		C135.437,54.21,133.977,57.373,133.977,61.363z"/>
</g>
</svg>
