<?xml version="1.0" encoding="utf-8"?>
<!-- Generator: Adobe Illustrator 16.0.3, SVG Export Plug-In . SVG Version: 6.00 Build 0)  -->
<!DOCTYPE svg PUBLIC "-//W3C//DTD SVG 1.1//EN" "http://www.w3.org/Graphics/SVG/1.1/DTD/svg11.dtd">
<svg version="1.1" id="Layer_1" xmlns="http://www.w3.org/2000/svg" xmlns:xlink="http://www.w3.org/1999/xlink" x="0px" y="0px"
	 width="85.039px" height="85.04px" viewBox="0 0 85.039 85.04" enable-background="new 0 0 85.039 85.04" xml:space="preserve">
<g id="XMLID_5_">
	<g>
		<path d="M66.104,53.377c3.521,3.52,3.521,9.22,0,12.729c-3.51,3.521-9.21,3.521-12.729,0c-3.511-3.51-3.511-9.21,0-12.729
			C56.894,49.868,62.594,49.868,66.104,53.377z"/>
		<path d="M21.554,47.017c-7.02-7.03-7.02-18.43,0-25.46c7.03-7.02,18.43-7.02,25.46,0c7.03,7.03,7.03,18.43,0,25.46l-12.73,12.73
			L21.554,47.017z M27.934,27.927c-3.52,3.51-3.52,9.21,0,12.73c3.5,3.51,9.21,3.51,12.73,0c3.5-3.52,3.5-9.22,0-12.73
			C37.144,24.407,31.434,24.407,27.934,27.927z"/>
	</g>
	<g>
	</g>
</g>
</svg>
