<?xml version="1.0" encoding="utf-8"?>
<!-- Generator: Adobe Illustrator 16.0.3, SVG Export Plug-In . SVG Version: 6.00 Build 0)  -->
<!DOCTYPE svg PUBLIC "-//W3C//DTD SVG 1.1//EN" "http://www.w3.org/Graphics/SVG/1.1/DTD/svg11.dtd">
<svg version="1.1" id="Layer_1" xmlns="http://www.w3.org/2000/svg" xmlns:xlink="http://www.w3.org/1999/xlink" x="0px" y="0px"
	 width="100px" height="100px" viewBox="0 0 100 100" enable-background="new 0 0 100 100" xml:space="preserve">
<circle fill="#808285" cx="50" cy="50" r="47.5"/>
<g id="XMLID_5_">
	<g>
		<path fill="#FFFFFF" d="M73.587,60.857c3.521,3.52,3.521,9.221,0,12.729c-3.51,3.521-9.209,3.521-12.729,0
			c-3.512-3.51-3.512-9.209,0-12.729C64.378,57.348,70.077,57.348,73.587,60.857z"/>
		<path fill="#FFFFFF" d="M29.038,54.498c-7.021-7.031-7.021-18.43,0-25.46c7.029-7.02,18.43-7.02,25.459,0
			c7.03,7.03,7.03,18.43,0,25.46L41.768,67.227L29.038,54.498z M35.417,35.408c-3.52,3.511-3.52,9.21,0,12.73
			c3.5,3.508,9.211,3.508,12.73,0c3.5-3.521,3.5-9.22,0-12.73C44.628,31.888,38.917,31.888,35.417,35.408z"/>
	</g>
</g>
</svg>
