<?xml version="1.0" encoding="utf-8"?>
<!-- Generator: Adobe Illustrator 16.0.3, SVG Export Plug-In . SVG Version: 6.00 Build 0)  -->
<!DOCTYPE svg PUBLIC "-//W3C//DTD SVG 1.1//EN" "http://www.w3.org/Graphics/SVG/1.1/DTD/svg11.dtd">
<svg version="1.1" id="Layer_1" xmlns="http://www.w3.org/2000/svg" xmlns:xlink="http://www.w3.org/1999/xlink" x="0px" y="0px"
	 width="60px" height="60px" viewBox="0 0 60 60" enable-background="new 0 0 60 60" xml:space="preserve">
<circle fill="#414042" cx="30" cy="30" r="25"/>
<g>
	<path fill-rule="evenodd" clip-rule="evenodd" fill="#FFFFFF" d="M24.883,35.104c-2.701,0.211-5.332,0.418-7.964,0.622
		c-0.761,0.059-1.524,0.163-2.286,0.154c-1.484-0.018-2.779-1.061-2.863-2.514c-0.115-1.967-0.116-3.952,0.014-5.917
		c0.105-1.582,1.369-2.661,3.047-2.662c5.846-0.003,11.695-0.045,17.537,0.137c4.265,0.134,8.519,0.595,12.777,0.915
		c2.172,0.164,2.929,0.874,3.108,3.089c0.09,1.112,0.081,2.243-0.01,3.355c-0.147,1.804-1.105,2.584-2.938,2.58
		c-3.46-0.01-6.92-0.003-10.597-0.003c0,0.896-0.009,1.818,0.001,2.741c0.024,2.563,0.056,5.128,0.086,7.69
		c0.023,1.943-0.731,2.867-2.634,3.016c-1.156,0.092-2.333,0.074-3.49-0.016c-1.936-0.149-2.711-0.965-2.878-2.88
		c-0.277-3.179-0.542-6.359-0.813-9.539C24.962,35.658,24.926,35.444,24.883,35.104z"/>
	<path fill-rule="evenodd" clip-rule="evenodd" fill="#FFFFFF" d="M24.668,16.843c0.076-4.379,0.583-4.949,4.92-5.188
		c1.247-0.069,2.514,0.022,3.757,0.168c1.436,0.169,2.504,1.421,2.468,2.903c-0.037,1.476-0.159,2.958-0.364,4.42
		c-0.201,1.443-1.208,2.462-2.729,2.531c-1.915,0.088-3.852,0-5.763-0.182c-1.256-0.12-2.197-1.341-2.28-2.635
		C24.634,18.19,24.668,17.515,24.668,16.843z"/>
</g>
</svg>
