<?xml version="1.0" encoding="utf-8"?>
<!-- Generator: Adobe Illustrator 16.0.3, SVG Export Plug-In . SVG Version: 6.00 Build 0)  -->
<!DOCTYPE svg PUBLIC "-//W3C//DTD SVG 1.1//EN" "http://www.w3.org/Graphics/SVG/1.1/DTD/svg11.dtd">
<svg version="1.1" id="Layer_1" xmlns="http://www.w3.org/2000/svg" xmlns:xlink="http://www.w3.org/1999/xlink" x="0px" y="0px"
	 width="60px" height="60px" viewBox="0 0 60 60" enable-background="new 0 0 60 60" xml:space="preserve">
<circle fill="#414042" cx="30" cy="30" r="25"/>
<g>
	<g>
		<path fill="#FFFFFF" d="M25.186,22.65c-1.23,1.294-2.211,3.263-2.992,4.951c-1.203,2.602-2.428,6.242-2.914,9.291
			c-0.257,1.612-0.304,4.279-0.159,5.54c0.108,0.941,1.141,2.317,1.541,2.73c0.659,0.681,1.689,1.334,2.871,1.729
			c1.181,0.394,4.724,0.63,6.141,0.315c1.418-0.315,1.181-0.315,2.521-0.945c1.338-0.63,1.653-0.866,2.756-1.969
			c1.102-1.102,1.574-2.047,2.126-3.464c0.551-1.417,0.984-6.574,0.629-9.369c-0.24-1.889-0.787-3.15-1.417-4.646
			c-0.63-1.496-1.442-2.993-2.756-4.646c-1.315-1.657-3.77-2.766-3.77-2.766C28.158,19.993,26.423,21.35,25.186,22.65z"/>
		<path fill="#FFFFFF" d="M29.763,19.402c0,0,2.627,0.096,3.573,0c0.83-0.084,2.028-0.297,2.716-0.738
			c1.083-0.695,1.477-1.004,2.008-1.771c0.532-0.768,0.798-1.329,1.211-2.008s0.826-1.935,1.477-2.171
			c0.649-0.236,1.446,0.222,1.624,0.458c0.177,0.236,0.411,0.59,0.588,0.974c0.178,0.384,0.075,1.034-0.102,1.477
			s-0.635,1.358-0.93,1.624c-0.295,0.266-0.975,1.004-1.564,1.27c-0.591,0.266-1.114,0.641-1.979,0.886
			c-1.565,0.443-4.518,0.443-5.64,0.443C32.27,19.845,29.763,19.402,29.763,19.402z"/>
		<path fill="#FFFFFF" d="M29.763,19.402c0,0-4.164,1.329-5.344,1.417c-1.181,0.089-2.097-0.266-2.982-0.708
			s-1.028-0.517-1.547-1.064c-0.515-0.543-0.792-0.929-1.346-1.003c-0.824-0.11-1.293,0.5-1.417,0.768
			c-0.193,0.417-0.236,0.856-0.089,1.24c0.148,0.384,0.601,1.064,1.053,1.408c0.531,0.403,0.926,0.638,1.338,0.787
			c0.686,0.248,1.595,0.138,2.421,0.079s3.012-0.797,3.573-1.033S29.763,19.402,29.763,19.402z"/>
	</g>
	<g>
		<circle fill="#414042" cx="29.959" cy="30.356" r="1.023"/>
		<circle fill="#414042" cx="26.141" cy="30.356" r="0.787"/>
	</g>
</g>
</svg>
