<?xml version="1.0" encoding="utf-8"?>
<!-- Generator: Adobe Illustrator 16.0.3, SVG Export Plug-In . SVG Version: 6.00 Build 0)  -->
<!DOCTYPE svg PUBLIC "-//W3C//DTD SVG 1.1//EN" "http://www.w3.org/Graphics/SVG/1.1/DTD/svg11.dtd">
<svg version="1.1" id="Layer_1" xmlns="http://www.w3.org/2000/svg" xmlns:xlink="http://www.w3.org/1999/xlink" x="0px" y="0px"
	 width="60px" height="60px" viewBox="0 0 60 60" enable-background="new 0 0 60 60" xml:space="preserve">
<circle fill="#414042" cx="30" cy="30" r="25"/>
<g>
	<path fill="#FFFFFF" d="M26.032,28.652c0,0-0.347-0.138-0.463-0.291c-0.206-0.269-0.226-0.803,0.036-1.145
		c0.232-0.304,0.776-0.352,0.776-0.352l0.479-2.398c0.649-3.255,1.686-5.601,3.11-7.034c1.762-1.783,3.716-2.674,5.856-2.674
		c0.834,0,1.552,0.194,2.151,0.582c0.602,0.387,0.756,1.967,0.541,2.468c-0.17,0.395-0.93,2.165-1.717,2.111
		c-0.816-0.056,1.031-3.324-2.181-3.46c-2.197-0.093-3.774,2.393-4.724,7.18l-0.64,3.227h5.073c-6.323,0,4.931-0.002,4.934-0.008
		c-0.122,0.437-0.815,1.27-1.424,1.483c-0.597,0.208-2.131,0.313-4.602,0.313h-4.345l-2.471,12.47c-0.242,1.2-0.49,2.75-0.623,3.284
		c-0.171,0.683-0.375,1.216-0.787,1.538c-0.803,0.629-3.347,0.523-3.578,0.054c-0.167-0.34,0.859-0.429,1.199-0.966
		c0.464-0.733,0.519-1.944,0.839-3.562L26.032,28.652z"/>
</g>
</svg>
