<?xml version="1.0" encoding="utf-8"?>
<!-- Generator: Adobe Illustrator 16.0.3, SVG Export Plug-In . SVG Version: 6.00 Build 0)  -->
<!DOCTYPE svg PUBLIC "-//W3C//DTD SVG 1.1//EN" "http://www.w3.org/Graphics/SVG/1.1/DTD/svg11.dtd">
<svg version="1.1" id="hat-painter" xmlns="http://www.w3.org/2000/svg" xmlns:xlink="http://www.w3.org/1999/xlink" x="0px"
	 y="0px" width="500px" height="700px" viewBox="0 0 500 700" enable-background="new 0 0 500 700" xml:space="preserve">
<g id="layer-hats">
	<g id="hat-svg-oval">
		
			<path id="svg-oval-thickness" fill="none" stroke="#F0F0F0" stroke-width="12" stroke-miterlimit="10" enable-background="new    " d="
			M109.735,245.931c0.557,11.107,2.476,22.647,5.798,33.909c4.493,15.235,36.048,31.616,52.729,41.352
			c-1.706,18.284-4.204,18.216,1.999,22.79c7.368,5.434,10.621,0.648,12.722,3.016c2.898,3.266-9.07,2.248,3.704,15.021
			c13.849,13.852,6.573,0.022,31.723,23.377c0,0,3.191,2.276,10.261,3.902c34.165,7.868,81.871-14.992,110.165-28.465
			c36.071-17.644,67.666-39.667,96.168-65.36c4.403-4.833,5.715-7.638,5.715-7.638c12.834-33.431,11.223-60.682,2.078-92.071
			c-11.646-39.995-29.828-72.718-51.492-90.78c-25.063-20.889-67.698-38.859-95.764-41.678
			c-32.263-3.238-105.486,1.183-150.28,66.792c-0.036-0.033-0.355,0.348-0.393,0.315c-4.522-3.968-21.905-8.868-33.192-8.868
			c-34.063,0-61.674,28.778-61.674,62.84C50,221.96,77.556,243.852,109.735,245.931z"/>
		<path fill="#F16822" d="M109.735,245.931C77.556,243.852,50,221.96,50,184.387c0-34.062,27.611-62.84,61.674-62.84
			c11.381,0,28.961,4.982,33.303,8.967c-5.191,6.803-19.033,27.617-27.767,56.155C108.568,214.908,109.735,245.931,109.735,245.931z
			"/>
		<path fill="#ED4483" d="M218.408,385.396c-25.149-23.354-17.874-9.525-31.723-23.377c-12.774-12.773-0.806-11.755-3.704-15.021
			c-2.101-2.368-5.354,2.418-12.722-3.016c-6.203-4.574-3.705-4.506-1.999-22.79c-16.681-9.736-48.235-26.117-52.729-41.352
			c-11.592-39.289-3.494-81.361,4.232-100.303c35.338-105.292,137.36-120.085,175.774-116.23
			c28.065,2.819,70.7,20.789,95.764,41.678c21.664,18.062,39.846,50.785,51.492,90.78c9.145,31.389,10.756,58.64-2.078,92.071
			c0,0-3.142,6.739-16.109,17.343c-16.746,13.685-46.375,36.873-108.813,66.219C245.249,404.555,218.408,385.396,218.408,385.396z"
			/>
		<path opacity="0.5" fill="#808080" enable-background="new    " d="M218.408,385.396c-12.059-20.414,10.779-66.472,26.048-92.521
			c15.271-26.047,44.911-80.84,67.365-102.397c22.457-21.558,52.099-33.234,69.162-35.93c17.066-2.694,34.135,15.271,46.711,32.337
			c12.574,17.065,29.438,64.478,13.021,100.947C432.74,310.008,270.096,417.102,218.408,385.396z"/>
		<path opacity="0.66" fill="#E6D1D5" enable-background="new    " d="M360.639,433.746
			c-31.717,15.103-109.229-21.805-144.861-55.359c-5.843-20.373,13.413-59.46,28.682-85.509
			c15.271-26.047,44.911-80.84,67.365-102.397c22.457-21.558,52.099-33.234,69.162-35.93c17.066-2.694,34.135,15.271,46.711,32.337
			c12.574,17.065,17.066,41.674,17.24,42.843C442.936,250.679,426.334,408.83,360.639,433.746z"/>
	</g>
	<g id="hat-svg-ears">
		<path id="svg-ears-thickness" fill="none" stroke="#F0F0F0" stroke-width="12" stroke-miterlimit="10" d="M413.906,458.168
			c0,0,2.483,15.428,9.344,31.77c3.537,8.427,8.625,17.063,13.438,24.625c4.805,7.55,5.431,11.95,6.875,18.813
			c1.5,7.125,0,27.5-1.563,33c-3.5-0.75-6.188-1.064-9.696-1.064c-24.064,0-43.575,19.512-43.575,43.574
			c0,24.064,19.511,43.566,43.575,43.566c24.06,0,43.573-19.502,43.573-43.566c0-20.512-14.18-37.704-33.266-42.336
			c3.196-19.882,3.709-38.858-5.787-52.607c-13.502-19.555-19.963-43.198-22.715-55.773c-0.849-3.876-1.448-6.701-1.66-8.027
			c-0.044,0.019-0.085,0.053-0.131,0.063c-0.005,0.002-0.011,0.001-0.016,0.003c-0.275,0.155-0.576,0.243-0.91,0.258
			c-11.226-3.298-45.893-96.631-69.893-93.631c-12.667,6.666-25.963,13.382-39.102,18.365c-22.128,8.942-38.231,13.968-59.834,18.65
			c2.854,26.36,9.851,78.915,7.158,79.813c-0.28,0.047-0.574,0.058-0.869,0.065c9.905,14.803,37.983,63.568,25.217,124.414
			c17.909,5.408,30.956,22.029,30.956,41.709c0,24.063-19.51,43.566-43.57,43.566c-24.065,0-43.572-19.504-43.572-43.566
			c0-24.065,19.507-43.569,43.572-43.569c2.833,0,7.668,0.343,12.355,1.78c4.063-23,3.918-46.428-0.892-66.138
			c-3.813-15.625-10.737-36.816-24.754-58.179c-1.076-0.168-1.25-0.204-1.792-0.347c-25.845-7.075-92.806-123.667-98.641-139.506
			c-6.431-17.453-2.756-29.397-8.268-41.342c-5.512-11.946-16.047-64.641-17.798-76.452c-2.951-19.885,8.382-50.902,24.485-78.608
			c-22.289-9.732-37.873-31.956-37.873-57.828c0-34.839,28.245-63.081,63.089-63.081c29.571,0,54.383,20.356,61.208,47.82
			c15.904-4.91,34.132-7.875,53.422-5.939c28.703,2.883,72.314,21.262,97.943,42.628c22.162,18.474,40.752,51.942,52.671,92.851
			c9.008,30.937,11.371,50.565-0.705,89.659c-0.489,1.783-1.008,3.573-1.593,5.374c-0.02,0.1-0.04,0.204-0.06,0.303
			c-0.274,1.406-0.547,2.808-0.813,4.191c-4.324,22.687-9.306,54.776-13.249,84.593c-0.031,0.26-0.06,0.517-0.09,0.775
			c-0.412,3.61-0.785,7.059-1.121,10.352c-2.171,21.967-2.795,40.634-3.945,51.343c-0.362,3.934-0.799,6.581-1.508,8.146
			c-0.309,0.782-0.657,1.271-1.054,1.448L413.906,458.168"/>
		<g>
			<path fill="#B3CE34" d="M234.448,79.663c0,34.838-28.242,63.083-63.078,63.083c-34.844,0-63.089-28.245-63.089-63.083
				c0-34.839,28.245-63.081,63.089-63.081C206.203,16.582,234.448,44.824,234.448,79.663z"/>
			<path fill="#FDDC1C" d="M434.484,288.111c13.678-42.145,11.479-62.063,2.131-94.169c-11.919-40.909-30.509-74.377-52.671-92.851
				C358.315,79.725,314.703,61.346,286,58.463c-39.292-3.943-74.204,12.427-93.964,24.212
				c-32.121,21.247-75.846,96.515-70.368,133.424c1.751,11.811,12.286,64.506,17.798,76.452c5.512,11.945,1.837,23.889,8.268,41.342
				c6.108,16.58,79.194,143.563,101.989,139.77c3.563-1.189-4.183-51.156-6.158-79.813c53.92-15.158,69.161-21.969,93.908-34.922
				c24.635-15.301,59.292,86.97,73.92,91.537C419.159,450.127,410.055,412.748,434.484,288.111z"/>
			<path opacity="0.5" fill="#808080" enable-background="new    " d="M420.196,378.063c-4.698,39.312-3.831,71.224-7.877,72.142
				c-10.939,3.565-48.742-102.467-72.661-92.313c-33.874,17.75-68.978,29.986-97.87,35.23c-3.617-24.639-6.343-69.391,1.776-120.439
				c16.484-28.678,38.771-66.534,57.113-84.143c22.969-22.049,53.284-33.994,70.737-36.75c17.454-2.755,34.913,15.62,47.774,33.074
				c12.859,17.457,30.099,58.002,15.128,104.112C429.803,311.781,424.407,346.219,420.196,378.063z"/>
			<path opacity="0.4" fill="#E6D1D5" enable-background="new    " d="M350.606,437.35c-20.91,9.961-69.122-0.676-104.938-19.76
				c-7.598-51.877-11.217-72.236-2.104-144.91c19.243-33.307,34.146-62.096,57.113-84.143c22.969-22.049,53.284-33.994,70.736-36.75
				c17.455-2.755,34.914,15.62,47.775,33.074c12.859,17.457,17.457,42.625,17.633,43.824
				C434.778,250.107,417.797,411.863,350.606,437.35z"/>
			<path fill="none" stroke="#FDDC1C" stroke-width="2" d="M245.56,469.086c0,0,47.771,60.689,26.19,138.643"/>
			<path fill="none" stroke="#FDDC1C" stroke-width="2" d="M412.319,449.283c0,0,5.107,36.563,24.506,64.658
				c12.876,18.643,7.357,46.896,1.686,73.987"/>
			<path fill="#B3CE34" d="M475.877,608.885c0,24.064-19.514,43.566-43.573,43.566c-24.064,0-43.575-19.502-43.575-43.566
				c0-24.063,19.511-43.574,43.575-43.574C456.365,565.311,475.877,584.82,475.877,608.885z"/>
			<path fill="#B3CE34" d="M305.028,639.852c0,24.063-19.51,43.566-43.57,43.566c-24.065,0-43.572-19.504-43.572-43.566
				c0-24.065,19.507-43.569,43.572-43.569C285.518,596.279,305.028,615.783,305.028,639.852z"/>
		</g>
	</g>
	<g id="hat-svg-round" display="none">
		
			<path id="svg-round-thickness" display="inline" opacity="0.6" fill="none" stroke="#F0F0F0" stroke-width="12" stroke-miterlimit="10" enable-background="new    " d="
			M443.345,198.725C421.859,92.613,325.759,67.717,298.481,64.978c-31-3.113-65.123,3.801-86.566,12.647
			c-9.477-20.624-30.3-34.952-54.483-34.952c-33.106,0-59.944,26.838-59.944,59.944c0,24.361,14.541,45.313,35.41,54.69
			c-20.45,39.31-19.624,77.362-18.106,111.845c1.862,42.389,36.525,67.513,105.876,118.035c0,0,3.101,2.213,9.972,3.793
			c31.862,7.853,79.699-15.385,107.196-28.48c30.701-16.094,65-35.333,93.348-62.72c4.267-4.685,5.55-7.412,5.549-7.412
			C449.203,259.875,449.651,229.87,443.345,198.725z"/>
		<circle display="inline" fill="#B5CF05" cx="157.431" cy="102.618" r="59.944"/>
		<path display="inline" fill="#0A8FE8" d="M421.074,309.218c-16.273,13.307-45.072,35.843-105.762,64.367
			c-68.56,32.226-94.646,13.603-94.646,13.603c-69.351-50.521-104.014-75.646-105.876-118.035
			c-2.46-55.882-3.13-121.137,85.686-185.931c18.781-11.2,60.667-21.993,98.005-18.244c27.278,2.739,123.378,27.635,144.864,133.747
			c6.306,31.145,5.858,61.15-6.614,93.643C436.732,292.368,433.682,298.916,421.074,309.218z"/>
		<path display="inline" opacity="0.5" fill="#808080" enable-background="new    " d="M220.666,387.188
			c-11.72-19.84,10.479-64.604,25.315-89.917c14.843-25.318,43.649-78.573,65.479-99.525c21.822-20.951,50.632-32.3,67.22-34.918
			c16.588-2.619,33.175,14.839,45.396,31.426c12.226,16.587,28.61,62.67,12.655,98.117
			C428.981,313.914,270.904,418.004,220.666,387.188z"/>
		<path display="inline" opacity="0.4" fill="#E5D1D6" enable-background="new    " d="M358.902,434.184
			c-30.824,14.68-106.164-21.195-140.792-53.809c-5.68-19.801,13.036-57.792,27.875-83.106
			c14.843-25.318,43.649-78.573,65.479-99.525c21.822-20.951,50.632-32.3,67.22-34.918c16.588-2.619,33.175,14.839,45.396,31.426
			c12.226,16.587,16.588,40.507,16.76,41.645C438.89,256.253,422.754,409.964,358.902,434.184z"/>
	</g>
</g>
<g id="layer-result">
	<text transform="matrix(1 0 0 1 24.7454 518.6055)" enable-background="new    "><tspan x="0" y="0" fill="#999999" font-family="'HelenBg-Light'" font-size="15">размер:</tspan><tspan x="0" y="18" fill="#999999" font-family="'HelenBg-Light'" font-size="15">материал:</tspan><tspan x="0" y="36" fill="#999999" font-family="'HelenBg-Light'" font-size="15">форма:</tspan><tspan x="0" y="54" fill="#999999" font-family="'HelenBg-Light'" font-size="15">дължина:</tspan><tspan x="0" y="72" fill="#999999" font-family="'HelenBg-Light'" font-size="15">дебелина:</tspan><tspan x="0" y="90" fill="#999999" font-family="'HelenBg-Light'" font-size="15">подплата:</tspan><tspan x="0" y="108" fill="#999999" font-family="'HelenBg-Light'" font-size="15">помпони:</tspan></text>
	<text id="result-size" transform="matrix(1 0 0 1 103.5002 518)" fill="#999999" font-family="'HelenBg-Light'" font-size="15">size</text>
	
		<text id="result-material" transform="matrix(1 0 0 1 103.5002 536.5)" fill="#999999" font-family="'HelenBg-Light'" font-size="15">material</text>
	<text id="result-shape" transform="matrix(1 0 0 1 103.5002 554)" fill="#999999" font-family="'HelenBg-Light'" font-size="15">shape</text>
	
		<text id="result-length" transform="matrix(1 0 0 1 103.2014 572.1426)" fill="#999999" font-family="'HelenBg-Light'" font-size="15">length</text>
	
		<text id="result-thickness" transform="matrix(1 0 0 1 103.5002 590.5)" fill="#999999" font-family="'HelenBg-Light'" font-size="15">thickness</text>
	
		<text id="result-lining" transform="matrix(1 0 0 1 103.5002 608.8809)" fill="#999999" font-family="'HelenBg-Light'" font-size="15">lining</text>
	
		<text id="result-pompoms" transform="matrix(1 0 0 1 103.5002 626.3809)" fill="#999999" font-family="'HelenBg-Light'" font-size="15">pompoms</text>
</g>
<g id="layer-controls">
	<g id="select-shape">
		<g id="option-oval">
			<circle fill="#FFFFFF" cx="31.051" cy="271.25" r="30"/>
			<text transform="matrix(1 0 0 1 17.5198 295.5527)" fill="#999999" font-family="'HelenBg-Light'" font-size="15">обла</text>
			<g>
				<path fill="#999999" stroke="#999999" stroke-width="0.8" d="M26.482,254.205c-0.633-0.969-1.002-2.127-1.002-3.371
					c0-3.407,2.765-6.167,6.166-6.167c3.406,0,6.168,2.76,6.168,6.167c0,1.375-0.446,2.645-1.209,3.67"/>
				<path fill="#999999" stroke="#999999" stroke-width="0.8" d="M20.322,277.814c0-16.805-0.061-11.811-0.061-15.586
					c0-3.959,4.479-9.189,11.339-9.189c7.098,0,11.436,5.535,11.436,8.396c0,2.262-0.191,16.338-0.191,16.338L20.322,277.814z"/>
			</g>
		</g>
		<g id="option-ears">
			<circle fill="#FFFFFF" cx="31.051" cy="343.246" r="30"/>
			<text transform="matrix(1.0637 0 0 1 12.7659 387.6855)" fill="#999999" font-family="'HelenBg-Light'" font-size="15">с уши</text>
			<g>
				<path fill="#999999" stroke="#999999" stroke-width="0.8" d="M27.302,323.42c-0.46-0.705-0.729-1.543-0.729-2.447
					c0-2.473,2.005-4.477,4.478-4.477s4.474,2.004,4.474,4.477c0,0.998-0.321,1.918-0.877,2.662"/>
				<path fill="#999999" stroke="#999999" stroke-width="0.8" d="M40.813,343.469H21.937l-0.14,10.434
					c-4.11-15.604-4.104-15.227-4.104-20.003c0-4.645,5.254-10.781,13.307-10.781c8.328,0,13.412,6.494,13.412,9.852
					c0,3.121-0.025,2.813-2.83,20.521L40.813,343.469z"/>
				<path fill="#999999" stroke="#999999" stroke-width="0.8" d="M45.787,363.307c0,2.377-1.929,4.303-4.304,4.303
					c-2.377,0-4.301-1.926-4.301-4.303c0-2.373,1.924-4.299,4.301-4.299S45.787,360.934,45.787,363.307z"/>
				<line fill="none" stroke="#999999" stroke-width="0.8" x1="41.487" y1="352.748" x2="41.487" y2="359.008"/>
				<path fill="#999999" stroke="#999999" stroke-width="0.8" d="M26.11,363.307c0,2.377-1.927,4.303-4.304,4.303
					c-2.374,0-4.301-1.926-4.301-4.303c0-2.373,1.927-4.299,4.301-4.299C24.183,359.008,26.11,360.934,26.11,363.307z"/>
				<line fill="none" stroke="#999999" stroke-width="0.8" x1="21.806" y1="352.748" x2="21.806" y2="359.008"/>
			</g>
		</g>
		<g id="option-round">
			<circle fill="#FFFFFF" cx="31.051" cy="430.857" r="30"/>
			<text transform="matrix(1 0 0 1 10.6375 453.4141)" fill="#999999" font-family="'HelenBg-Light'" font-size="15">кръгла</text>
			<g>
				<path fill="#999999" stroke="#999999" stroke-width="0.8" d="M26.482,412.521c-0.633-0.972-1.002-2.127-1.002-3.371
					c0-3.406,2.765-6.166,6.166-6.166c3.407,0,6.168,2.76,6.168,6.166c0,1.375-0.446,2.645-1.209,3.67"/>
				<path fill="#999999" stroke="#999999" stroke-width="0.8" d="M20.585,436.131c0,0-4.552-4.682-3.396-13.535
					c0.515-3.924,3.979-11.242,14.675-11.242c10.733,0,13.729,8.381,14.241,11.195c1.109,6.078-3,13.541-3,13.541L20.585,436.131z"
					/>
			</g>
		</g>
	</g>
	<g id="select-size">
		<text transform="matrix(1 0 0 1 82.4485 435.2461)" fill="#999999" font-family="'HelenBg-Light'" font-size="15">по-голяма</text>
		<path fill="#999999" d="M168.548,439.972c-0.354,0-0.708-0.136-0.979-0.402c-0.541-0.541-0.541-1.416,0-1.957l5.752-5.752
			l-5.753-5.757c-0.54-0.541-0.54-1.417,0-1.957c0.54-0.536,1.416-0.536,1.957,0l6.73,6.732c0.54,0.541,0.54,1.417,0,1.957
			l-6.73,6.73C169.256,439.836,168.902,439.972,168.548,439.972z"/>
		<path fill="#999999" d="M161.2,439.972c-0.354,0-0.708-0.136-0.979-0.402l-6.729-6.73c-0.541-0.54-0.541-1.416,0-1.957
			l6.729-6.729c0.541-0.539,1.417-0.539,1.957,0c0.541,0.539,0.541,1.416,0,1.957l-5.753,5.754l5.752,5.752
			c0.541,0.541,0.541,1.416,0,1.957C161.908,439.836,161.554,439.972,161.2,439.972z"/>
	</g>
	<g id="select-material">
		<g id="option-wool">
			<rect x="14.667" y="15.296" fill="#FFFFFF" width="73.912" height="18.871"/>
			<circle fill="#FFFFFF" cx="24.745" cy="25.123" r="11.502"/>
			<text transform="matrix(1 0 0 1 35.8958 29.2871)" fill="#999999" font-family="'HelenBg-Light'" font-size="15">вълнена</text>
			<g>
				<path fill="#999999" d="M20.119,19.35c-0.06-0.166-0.087-0.262-0.105-0.342c0.459-0.846,2.199-2.566,3.779-2.928
					c3.66-0.839,5.709,2.141,6.867,3.588c0.069,0.244,0.064,0.227,0.08,0.283c-1.166-1.355-3.48-4.436-6.826-3.427
					C21.529,17.243,20.431,18.944,20.119,19.35z"/>
				<path fill="#999999" d="M20.062,22.104c-0.057-0.166-0.087-0.26-0.104-0.34c1.293-2.912,3.1-3.936,4.68-4.298
					c3.662-0.837,5.553,2.121,6.712,3.567c0.013,0.045,0.085,0.255,0.097,0.312c-1.166-1.354-3.342-4.441-6.688-3.435
					C22.371,18.629,21.695,19.411,20.062,22.104z"/>
				<path fill="#999999" d="M20.779,23.958c-0.057-0.164-0.087-0.261-0.104-0.341c1.418-2.919,3.271-4.235,4.852-4.597
					c3.662-0.838,5.414,1.943,6.573,3.39c0.013,0.044,0.085,0.255,0.097,0.312c-1.166-1.357-3.198-4.265-6.549-3.258
					C23.261,20.182,22.316,21.413,20.779,23.958z"/>
				<path fill="#999999" d="M21.869,25.123c-0.062-0.167-0.091-0.261-0.107-0.341c0.942-2.703,2.863-3.803,4.443-4.165
					c3.662-0.839,5.597,1.759,6.756,3.206c0.013,0.043,0.084,0.254,0.098,0.311c-1.168-1.357-3.385-4.08-6.729-3.072
					C23.941,21.78,23.388,22.415,21.869,25.123z"/>
				<path fill="#999999" d="M23.13,25.78c-0.061-0.166-0.087-0.262-0.106-0.342c0.459-0.846,2.638-3.142,4.215-3.503
					c3.662-0.839,4.884,1.442,5.938,2.403c0.012,0.043,0.084,0.254,0.098,0.311c-1.465-1.369-2.854-3.152-5.911-2.27
					C24.967,23.07,23.44,25.374,23.13,25.78z"/>
				<path fill="#999999" d="M22.331,32.865c-0.115,0.133-0.186,0.207-0.242,0.264c-0.962,0.025-3.323-0.622-4.427-1.81
					c-2.56-2.752-1-6.015-0.326-7.742c0.176-0.184,0.164-0.171,0.207-0.211c-0.592,1.689-2.104,5.232,0.44,7.626
					C19.802,32.699,21.824,32.799,22.331,32.865z"/>
				<path fill="#999999" d="M24.745,31.537c-0.114,0.133-0.186,0.206-0.241,0.264c-3.168,0.337-4.958-0.716-6.063-1.904
					c-2.557-2.751-0.938-5.869-0.266-7.596c0.032-0.032,0.177-0.2,0.22-0.24c-0.592,1.688-2.176,5.115,0.369,7.509
					C20.581,31.276,21.595,31.469,24.745,31.537z"/>
				<path fill="#999999" d="M25.992,29.99c-0.115,0.132-0.186,0.206-0.242,0.263c-3.238,0.23-5.308-0.717-6.408-1.904
					c-2.557-2.752-1.023-5.66-0.35-7.387c0.028-0.033,0.178-0.201,0.221-0.24c-0.592,1.689-2.094,4.905,0.453,7.3
					C21.48,29.727,23.019,29.932,25.992,29.99z"/>
				<path fill="#999999" d="M26.457,28.465c-0.116,0.133-0.187,0.205-0.243,0.262c-2.813,0.535-4.729-0.577-5.828-1.766
					c-2.558-2.751-1.275-5.726-0.603-7.452c0.028-0.033,0.179-0.201,0.221-0.241c-0.592,1.689-1.84,4.972,0.705,7.365
					C22.523,28.342,23.35,28.502,26.457,28.465z"/>
				<path fill="#999999" d="M26.394,27.043c-0.115,0.133-0.183,0.205-0.242,0.264c-0.962,0.024-4.039-0.712-5.143-1.9
					c-2.557-2.751-1.19-4.947-0.887-6.341c0.029-0.032,0.179-0.2,0.222-0.24c-0.454,1.953-1.302,4.05,0.989,6.255
					C23.129,26.807,25.886,26.977,26.394,27.043z"/>
				<path fill="#999999" d="M32.829,24.329c0.173,0.033,0.271,0.055,0.35,0.078c0.503,0.82,1.124,3.188,0.647,4.738
					c-1.105,3.59-4.71,3.873-6.543,4.152c-0.247-0.06-0.23-0.055-0.285-0.072c1.759-0.332,5.58-0.796,6.383-4.197
					C33.951,26.602,33.025,24.799,32.829,24.329z"/>
				<path fill="#999999" d="M30.472,22.902c0.172,0.033,0.271,0.055,0.348,0.078c1.876,2.575,1.859,4.65,1.386,6.2
					c-1.105,3.59-4.613,3.748-6.445,4.029c-0.045-0.012-0.264-0.055-0.318-0.072c1.76-0.332,5.521-0.672,6.318-4.074
					C32.328,26.638,31.99,25.663,30.472,22.902z"/>
				<path fill="#999999" d="M28.508,22.595c0.174,0.033,0.27,0.056,0.35,0.078c1.819,2.688,2.031,4.952,1.558,6.502
					c-1.104,3.591-4.392,3.717-6.226,3.997c-0.043-0.012-0.262-0.055-0.314-0.071c1.759-0.332,5.295-0.642,6.095-4.044
					C30.538,26.633,29.944,25.199,28.508,22.595z"/>
				<path fill="#999999" d="M26.956,22.957c0.173,0.033,0.27,0.055,0.349,0.077c1.868,2.168,1.863,4.381,1.385,5.932
					c-1.104,3.59-4.318,3.967-6.151,4.248c-0.043-0.012-0.265-0.055-0.318-0.072c1.76-0.332,5.229-0.891,6.028-4.293
					C28.814,26.423,28.541,25.626,26.956,22.957z"/>
				<path fill="#999999" d="M25.756,23.72c0.173,0.033,0.271,0.056,0.349,0.078c0.504,0.82,1.403,3.853,0.93,5.403
					c-1.105,3.59-3.689,3.506-5.052,3.938c-0.044-0.011-0.262-0.055-0.315-0.07c1.919-0.584,4.158-0.897,4.922-3.984
					C27.183,26.666,25.952,24.192,25.756,23.72z"/>
			</g>
		</g>
		<g id="option-cotton">
			<rect x="14.667" y="43.901" fill="#FFFFFF" width="73.912" height="18.871"/>
			<circle fill="#FFFFFF" cx="23.875" cy="53.571" r="11.502"/>
			<g>
				<path fill="#999999" d="M16.758,48.25c0,0-1.277,5.443,0.604,6.506c1.883,1.063,4.947,1.162,4.947,1.162v8.155h1.344v-8.155
					c0,0,4.123,0.113,5.646-1.23c1.521-1.343,0.742-6.234,0.742-6.234s-2.379,0.605-3.974,2.307c-2.131,2.283-2.567,3.08-2.567,3.08
					s-0.258-0.787-2.104-2.781C19.248,48.738,16.758,48.25,16.758,48.25z"/>
				<path fill="#999999" d="M30.041,49.37c-0.034,0-0.068-0.008-0.103-0.027c-0.095-0.055-0.128-0.177-0.07-0.273
					c0.048-0.083,1.147-2.049-0.643-3.269c-1.79-1.22-3.079,0.292-3.133,0.357l-0.334-0.214c0.006-0.013,0.604-1.278,0.085-2.106
					c-0.317-0.504-0.999-0.76-2.025-0.76s-1.736,0.271-2.105,0.804c-0.611,0.881-0.124,2.213-0.118,2.226l-0.347,0.191
					c-0.008-0.011-0.821-1.067-1.938-1.167c-0.604-0.056-1.192,0.182-1.76,0.702c-1.673,1.537-0.674,2.957-0.631,3.016
					c0.063,0.089,0.045,0.214-0.044,0.279c-0.089,0.064-0.215,0.044-0.279-0.044c-0.013-0.018-1.249-1.771,0.684-3.546
					c0.652-0.6,1.353-0.871,2.068-0.805c0.712,0.064,1.302,0.445,1.693,0.782c-0.077-0.535-0.071-1.267,0.341-1.862
					c0.449-0.648,1.27-0.977,2.438-0.977c1.177,0,1.973,0.319,2.364,0.949c0.357,0.57,0.303,1.267,0.184,1.778
					c0.638-0.428,1.753-0.845,3.088,0.066c2.099,1.431,0.771,3.776,0.76,3.799C30.177,49.334,30.11,49.37,30.041,49.37z"/>
			</g>
			
				<text id="памучна" transform="matrix(1 0 0 1 35.8958 57.8633)" fill="#999999" font-family="'HelenBg-Light'" font-size="15">памучна</text>
		</g>
	</g>
	<g id="select-thickness">
		<text transform="matrix(1 0 0 1 420.7278 80.542)" fill="#999999" font-family="'HelenBg-Light'" font-size="15">по-дебела</text>
		<g>
			<path fill="#999999" d="M406.573,87.016c-5.512,0-10-4.487-10-10c0-5.513,4.488-10,10-10c5.515,0,10,4.487,10,10
				C416.573,82.529,412.088,87.016,406.573,87.016z M406.573,67.697c-5.139,0-9.316,4.181-9.316,9.319
				c0,5.138,4.181,9.319,9.316,9.319c5.141,0,9.319-4.181,9.319-9.319C415.895,71.878,411.715,67.697,406.573,67.697z"/>
			<path fill="#999999" d="M409.023,77.016l2.938-2.938c0.675-0.675,0.675-1.771,0-2.446c-0.679-0.675-1.771-0.675-2.446,0
				l-2.938,2.938l-2.854-2.857c-0.675-0.675-1.771-0.675-2.445,0c-0.676,0.675-0.676,1.771,0,2.446l2.857,2.857l-2.938,2.938
				c-0.675,0.675-0.676,1.771-0.001,2.446c0.676,0.675,1.771,0.675,2.447,0l2.938-2.938l2.857,2.857
				c0.676,0.676,1.771,0.676,2.446,0c0.675-0.675,0.675-1.771,0-2.446L409.023,77.016z"/>
		</g>
	</g>
	<g id="select-length">
		<text transform="matrix(1 0 0 1 253.2815 30.3613)" fill="#999999" font-family="'HelenBg-Light'" font-size="15">по-дълга</text>
		<path fill="#999999" d="M330.6,34.682c-0.354,0-0.708-0.135-0.979-0.405l-6.729-6.731c-0.54-0.54-0.54-1.416,0-1.956l6.729-6.73
			c0.541-0.541,1.416-0.541,1.957,0c0.54,0.54,0.54,1.416,0,1.956l-5.753,5.752l5.753,5.753c0.54,0.54,0.54,1.416,0,1.956
			C331.308,34.547,330.95,34.682,330.6,34.682z"/>
		<path fill="#999999" d="M322.52,34.682c-0.354,0-0.708-0.135-0.979-0.405l-6.729-6.731c-0.54-0.54-0.54-1.416,0-1.956l6.729-6.73
			c0.541-0.541,1.416-0.541,1.957,0c0.54,0.54,0.54,1.416,0,1.956l-5.753,5.752l5.753,5.753c0.54,0.54,0.54,1.416,0,1.956
			C323.228,34.547,322.87,34.682,322.52,34.682z"/>
	</g>
	<g id="select-lining">
		<rect x="293.194" y="450.857" fill="#FFFFFF" width="92" height="20"/>
		<text transform="matrix(1 0 0 1 294.3557 464.4785)" fill="#999999" font-family="'HelenBg-Light'" font-size="15">подплата</text>
		<path fill="#999999" d="M373.06,470.857c-5.512,0-10-4.487-10-10s4.488-10,10-10s10,4.487,10,10S378.57,470.857,373.06,470.857z
			 M373.06,451.538c-5.139,0-9.316,4.184-9.316,9.319s4.182,9.319,9.316,9.319c5.137,0,9.32-4.184,9.32-9.319
			S378.197,451.538,373.06,451.538z"/>
		<path fill="#999999" d="M378.83,459.127h-4.041v-4.152c0-0.955-0.774-1.729-1.729-1.729s-1.729,0.774-1.729,1.729v4.152h-4.041
			c-0.955,0-1.729,0.774-1.729,1.729s0.774,1.729,1.729,1.729h4.041v4.155c0,0.955,0.771,1.73,1.729,1.73s1.729-0.775,1.729-1.73
			v-4.155h4.041c0.952,0,1.729-0.771,1.729-1.729S379.782,459.127,378.83,459.127z"/>
	</g>
	<g id="select-pompoms">
		<text transform="matrix(1 0 0 1 5.6355 110.8369)" fill="#999999" font-family="'HelenBg-Light'" font-size="15">помпони</text>
		<g>
			<path fill="#999999" d="M75.939,116.728c-5.512,0-10-4.487-10-10c0-5.513,4.488-10,10-10s10,4.487,10,10
				C85.939,112.241,81.449,116.728,75.939,116.728z M75.939,97.409c-5.139,0-9.319,4.181-9.319,9.319
				c0,5.138,4.184,9.319,9.319,9.319s9.319-4.181,9.319-9.319C85.258,101.59,81.076,97.409,75.939,97.409z"/>
			<path fill="#999999" d="M81.708,104.998h-4.041v-4.155c0-0.955-0.771-1.729-1.729-1.729s-1.729,0.774-1.729,1.729v4.155h-4.042
				c-0.955,0-1.729,0.774-1.729,1.729s0.771,1.729,1.729,1.729h4.041v4.155c0,0.955,0.774,1.73,1.729,1.73s1.729-0.775,1.729-1.73
				v-4.155h4.041c0.955,0,1.729-0.774,1.729-1.729S82.663,104.998,81.708,104.998z"/>
		</g>
	</g>
	<g id="color-wheel">
		<path fill="#3399FF" d="M319.108,562.595l-12.569,12.569c6.011,6.009,12.494,9.753,20.702,11.952l4.601-17.162
			C326.952,568.647,322.582,566.069,319.108,562.595z"/>
		<path fill="#00BABE" d="M339.192,570.919c-2.542,0-5.007-0.336-7.354-0.965l-4.602,17.162c8.208,2.198,15.698,2.198,23.905,0
			l-4.599-17.162C344.2,570.583,341.736,570.919,339.192,570.919z"/>
		<path fill="#9ACA4E" d="M346.548,569.954l4.598,17.162c8.208-2.199,14.693-5.943,20.702-11.952l-12.569-12.569
			C355.805,566.069,351.435,568.647,346.548,569.954z"/>
		<path fill="#FEFE33" d="M359.278,562.595l12.569,12.569c6.008-6.009,9.753-12.494,11.952-20.702l-17.161-4.598
			C365.329,554.751,362.753,559.121,359.278,562.595z"/>
		<path fill="#FB9902" d="M383.8,530.558l-17.161,4.602c0.627,2.346,0.964,4.811,0.964,7.354s-0.336,5.011-0.964,7.354l17.161,4.598
			C385.999,546.255,385.999,538.766,383.8,530.558z"/>
		<path fill="#EC1B32" d="M366.639,535.156l17.161-4.602c-2.199-8.207-5.944-14.69-11.952-20.699l-12.569,12.566
			C362.753,525.899,365.33,530.27,366.639,535.156z"/>
		<path fill="#ED4483" d="M359.278,522.425l12.569-12.566c-6.009-6.012-12.495-9.753-20.702-11.952l-4.598,17.162
			C351.435,516.373,355.805,518.95,359.278,522.425z"/>
		<path fill="#993399" d="M339.192,514.101c2.544,0,5.008,0.339,7.355,0.968l4.598-17.162c-8.207-2.199-15.697-2.199-23.904,0
			l4.601,17.162C334.185,514.436,336.65,514.101,339.192,514.101z"/>
		<path fill="#0247FE" d="M311.748,549.864l-17.161,4.598c2.195,8.208,5.94,14.694,11.949,20.703l12.569-12.57
			C315.634,559.121,313.056,554.751,311.748,549.864z"/>
		<g>
			<path fill="#FFFFFF" d="M294.765,554.155c-2.088-7.938-2.088-15.354,0-23.292l16.679,4.47c-0.604,2.338-0.91,4.751-0.91,7.177
				s0.309,4.839,0.91,7.178L294.765,554.155z"/>
			<path fill="#CCCCCC" d="M294.942,531.17l16.197,4.341c-0.568,2.283-0.856,4.638-0.856,6.999c0,2.364,0.288,4.717,0.856,6.999
				l-16.197,4.341C292.922,546.029,292.922,538.991,294.942,531.17 M294.587,530.558c-2.199,8.208-2.199,15.697,0,23.904
				l17.161-4.598c-0.631-2.35-0.968-4.813-0.968-7.354s0.337-5.008,0.968-7.354L294.587,530.558L294.587,530.558z"/>
		</g>
		<path d="M331.839,515.065l-4.601-17.162c-8.208,2.196-14.691,5.94-20.702,11.952l12.569,12.566
			C322.582,518.95,326.952,516.373,331.839,515.065z"/>
		<path fill="#666666" d="M319.108,522.425l-12.569-12.567c-6.009,6.009-9.754,12.492-11.949,20.699l17.16,4.602
			C313.056,530.27,315.634,525.899,319.108,522.425z"/>
	</g>
	<g id="order">
		<text transform="matrix(1 0 0 1 25.3416 669.834)" fill="#74CFEF" font-family="'HelenBg-Light'" font-size="20">поръчай</text>
		<circle fill="#999999" cx="118.579" cy="664.741" r="12.292"/>
		<polygon fill="#FFFFFF" points="116.243,673.313 112.06,673.117 106.926,664.485 111.238,661.919 114.43,667.285 124.242,653.836 
			128.296,656.793 		"/>
	</g>
	<g id="target">
		<circle fill="#FFFFFF" cx="106.925" cy="136.735" r="2.157"/>
		<circle fill="none" stroke="#FFFFFF" stroke-width="0.5866" stroke-miterlimit="5" cx="106.926" cy="136.735" r="3.725"/>
	</g>
</g>
</svg>
