<?xml version="1.0" encoding="utf-8"?>
<!-- Generator: Adobe Illustrator 16.0.3, SVG Export Plug-In . SVG Version: 6.00 Build 0)  -->
<!DOCTYPE svg PUBLIC "-//W3C//DTD SVG 1.1//EN" "http://www.w3.org/Graphics/SVG/1.1/DTD/svg11.dtd">
<svg version="1.1" id="Layer_1" xmlns="http://www.w3.org/2000/svg" xmlns:xlink="http://www.w3.org/1999/xlink" x="0px" y="0px"
	 width="100px" height="100px" viewBox="0 0 100 100" enable-background="new 0 0 100 100" xml:space="preserve">
<circle fill="#808285" cx="50" cy="50" r="47.5"/>
<g>
	<path fill="#FFFFFF" d="M53.098,62.729h-7.471c0-1.96,0.065-3.445,0.198-4.455c0.131-1.009,0.432-2.289,0.9-3.84
		c0.674-2.02,2.549-4.564,5.625-7.638c3.076-3.071,5.127-5.238,6.152-6.496c1.025-1.258,1.538-3.073,1.538-5.443
		c0-2.721-0.864-4.901-2.593-6.54c-1.729-1.638-4.014-2.458-6.855-2.458c-2.432,0-4.388,0.556-5.867,1.668s-2.549,2.561-3.207,4.346
		c-0.66,1.786-1.121,3.98-1.385,6.585h-7.383c0.117-6.162,1.736-10.901,4.855-14.217c3.121-3.316,7.449-4.974,12.986-4.974
		c3.428,0,6.431,0.623,9.009,1.868c2.578,1.246,4.556,3.01,5.933,5.295s2.065,4.966,2.065,8.042c0,2.784-0.55,5.215-1.647,7.295
		c-1.1,2.081-3.04,4.35-5.823,6.811c-1.582,1.436-2.783,2.601-3.604,3.494c-0.82,0.895-1.458,1.787-1.911,2.681
		c-0.455,0.894-0.799,1.956-1.033,3.187S53.186,60.767,53.098,62.729z M45.012,68.926h8.657v9.008h-8.657V68.926z"/>
</g>
</svg>
